<?xml version="1.0"?>
<svg xmlns:rdf="http://www.w3.org/1999/02/22-rdf-syntax-ns#" xmlns="http://www.w3.org/2000/svg" xmlns:cc="http://web.resource.org/cc/" xmlns:dc="http://purl.org/dc/elements/1.1/" xmlns:sodipodi="http://inkscape.sourceforge.net/DTD/sodipodi-0.dtd" id="svg18182" sodipodi:version="0.32" height="300pt" width="185pt" version="1.0" sodipodi:docname="make_a_santa_list.svg" sodipodi:docbase="C:\foo\wikipedia\transfer">
 <sodipodi:namedview id="base" bordercolor="#666666" borderopacity="1.0" showborder="true" pagecolor="#ffffff"/>
 <path id="path18307" d="m97.229 372.65c-5.938-0.4-12.936-1.67-23.589-4.28-9.859-2.42-20.681-5.66-31.108-9.3-9.473-3.31-14.574-4.86-23.441-7.15-5.946-1.53-7.754-2.18-9.1391-3.27-1.4559-1.16-3.2534-4-4.2243-6.69-0.7869-2.19-1.6746-7.56-1.6746-10.14 0-4.1 2.1459-9.61 4.5343-11.65 3.0197-2.59 7.5477-3.73 10.616-2.69l1.362 0.47v-102.45c0-56.35-0.073-102.45-0.163-102.45-0.089 0-1.107 0.22-2.26 0.48-3.403 0.77-7.333 0-9.372-1.84-2.4127-2.18-4.9042-7.59-5.6263-12.218-0.7147-4.581 0.2806-11.863 2.1922-16.039 0.3965-0.866 1.2756-2.129 1.9535-2.807 1.4224-1.422 1.2807-1.419 6.6416-0.173 1.784 0.415 5.035 1.022 7.224 1.351 2.189 0.328 4.644 0.719 5.455 0.868s2.24 0.279 3.176 0.288c1.55 0.016 1.733-0.05 2.047-0.74 0.271-0.596 0.264-0.809-0.032-0.992-0.225-0.139-0.341-0.66-0.287-1.29 0.05-0.581-0.005-1.152-0.121-1.269-0.638-0.638 0.498-3.277 1.769-4.11 0.38-0.249 0.619-0.569 0.531-0.711-0.087-0.142-1.054-0.75-2.147-1.353-4.292-2.363-5.788-3.63-7.507-6.357-0.689-1.094-1.345-3.607-1.569-6.012-0.105-1.135-0.444-3.081-0.753-4.324-0.309-1.244-0.562-3.213-0.562-4.376 0-1.995-0.06-2.185-1.04-3.331-1.22-1.426-2.793-4.61-2.793-5.654 0-0.873 2.339-2.856 4.027-3.413 2.771-0.914 9.145 0.56 15.038 3.48 1.485 0.735 2.894 1.263 3.132 1.172 0.258-0.099 0.578-0.945 0.798-2.108 0.465-2.466 1.8-4.316 3.732-5.17 1.861-0.824 2.476-0.761 3.803 0.386l1.143 0.988 0.219 4.983c0.121 2.741 0.297 5.409 0.392 5.93 0.256 1.404 1.502 4.05 3.189 6.77l1.494 2.41 1.313-1.157c1.227-1.079 2.47-1.48 2.823-0.909 0.084 0.135 1.187 0.187 2.452 0.113 2.383-0.138 3.023 0.032 5.391 1.423 1.337 0.786 3.812 3.514 3.824 4.216 0.005 0.299 0.256 0.896 0.556 1.327 0.928 1.328 1.025 2.339 0.336 3.507-0.583 0.987-0.592 1.111-0.16 2.189 0.251 0.629 0.457 1.406 0.457 1.727 0 0.393 0.199 0.584 0.609 0.584 0.335 0 0.887 0.148 1.226 0.329 0.506 0.271 0.7 0.226 1.086-0.252 0.258-0.32 0.702-0.663 0.986-0.763 0.401-0.14 0.516-0.518 0.516-1.698 0-1.676 0.914-3.685 1.807-3.968 0.287-0.091 0.824-0.656 1.193-1.256 0.368-0.6 0.911-1.29 1.205-1.533 0.461-0.38 0.489-0.577 0.198-1.408-0.505-1.444-0.122-2.829 1.071-3.877 0.569-0.499 1.286-0.907 1.595-0.907 0.681 0 1.049-0.525 0.943-1.345-0.271-2.097 1.37-5.142 2.771-5.142 0.392 0 0.956-0.405 1.434-1.032 0.433-0.568 0.983-1.032 1.223-1.032s0.513-0.199 0.607-0.442c0.093-0.244 0.48-0.443 0.86-0.443 0.624 0 0.698 0.147 0.779 1.546 0.076 1.325 0.197 1.597 0.844 1.906 0.474 0.226 1.079 0.274 1.622 0.129 0.774-0.207 0.908-0.423 1.255-2.026l0.388-1.794-1.027-1.429c-0.565-0.786-1.522-2.345-2.126-3.465-1.025-1.896-1.075-2.104-0.735-3.043 0.258-0.713 0.277-1.238 0.068-1.797-0.163-0.434-0.655-2.095-1.092-3.69-0.593-2.165-0.71-2.987-0.46-3.236 0.25-0.25 0.492-0.237 0.954 0.052 0.615 0.384 0.618 0.37 0.412-1.828-0.191-2.043-0.161-2.239 0.397-2.538 0.459-0.245 0.565-0.517 0.443-1.128-0.114-0.569 0.061-1.133 0.598-1.924 0.418-0.615 0.759-1.192 0.759-1.281 0-0.09 0.252-0.517 0.56-0.949 0.308-0.433 0.855-1.756 1.215-2.941 0.496-1.635 0.816-2.216 1.325-2.41 0.417-0.158 0.863-0.761 1.183-1.597 0.653-1.711 1.107-2.111 1.71-1.507 0.407 0.407 0.517 0.362 1.097-0.455 0.49-0.691 0.81-0.8686 1.31-0.7434 0.49 0.1254 0.73-0.0099 0.98-0.5669 0.36-0.7897 0.91-0.9356 1.46-0.3873 0.38 0.3812 0.45 0.2679 0.89-1.5231 0.19-0.7864 0.46-1.0923 1.12-1.2878 0.47-0.141 1.1-0.378 1.39-0.5266s0.64-0.2026 0.77-0.1201 0.79-0.112 1.45-0.4323c1.52-0.7328 1.69-0.7279 2.24 0.0644l0.45 0.6468 0.67-0.6099c0.93-0.8459 1.97-1.3468 2.43-1.1699 0.22 0.082 1.22-0.1094 2.24-0.4252 1.9-0.5931 2.76-0.546 3.04 0.1664 0.12 0.3226 0.38 0.3499 1.19 0.126 0.57-0.1573 1.67-0.2624 2.45-0.2337s3.59-0.1593 6.25-0.4177c3.48-0.3378 5.47-0.3957 7.08-0.2059 1.23 0.1453 3.4 0.3537 4.82 0.4633l2.59 0.1991 1.48 2.8842c1.58 3.0812 4.19 6.2386 6.11 7.4036 0.6 0.365 1.62 1.103 2.25 1.64 0.64 0.536 1.32 0.975 1.52 0.975 0.63 0 5.45 5.061 6.15 6.463 1.02 2.039 1.28 3.068 1.8 7.247 0.27 2.107 0.64 4.21 0.83 4.672 0.29 0.704 0.35 0.183 0.38-3.189 0.04-4.565 0.31-5.315 1.38-3.843 0.35 0.485 0.86 1.103 1.13 1.372 1.04 1.043 3.01 4.319 3.7 6.134 0.39 1.045 1.01 3.036 1.36 4.423 0.61 2.378 0.64 3.117 0.6 12.943l-0.04 10.421 0.94-0.912c0.96-0.927 2.58-1.258 2.98-0.608 0.11 0.178 0.62 0.224 1.22 0.11 0.79-0.147 1.23-0.053 1.82 0.387 0.44 0.32 1.26 0.669 1.83 0.776 0.58 0.107 1.34 0.401 1.7 0.653 0.67 0.473 0.87 1.432 0.36 1.75-0.38 0.232 0.31 1.577 1.48 2.912 1.39 1.585 1.75 3.007 1.63 6.435-0.08 2.323-0.21 3.082-0.58 3.348-0.26 0.19-0.47 0.662-0.47 1.049 0 0.388-0.22 1.103-0.48 1.589-0.26 0.487-0.52 1.407-0.58 2.044-0.07 0.727-0.39 1.448-0.85 1.933-0.41 0.425-0.74 0.989-0.74 1.252 0 0.655-0.77 1.366-1.72 1.596-0.43 0.105-1.14 0.437-1.57 0.737-0.89 0.624-1.78 0.695-2.68 0.215-0.51-0.271-0.69-0.234-1.01 0.204-0.58 0.783-0.53 0.882 0.97 1.953 0.75 0.537 2.68 2.436 4.29 4.22 2.36 2.609 3.22 3.82 4.38 6.19 0.8 1.62 1.7 3.91 2 5.08 0.29 1.17 0.74 2.36 0.98 2.65 0.25 0.29 1.25 1.85 2.23 3.48 1.99 3.28 4.48 9.68 5.94 15.21 0.49 1.85 1.02 3.71 1.18 4.13 0.16 0.43 0.44 1.49 0.61 2.36 0.17 0.88 0.66 3.18 1.08 5.13 1.35 6.26 1.27 16.21-0.21 26.32l-0.61 4.2 3.22 3.46c3.77 4.04 7.25 8.59 11.07 14.43 1.18 1.81 1.21 1.83 2.84 2.02 2.63 0.31 6.22 2.17 6.22 3.22 0 0.19 0.55 0.86 1.21 1.5 1.92 1.85 2.49 3 3.54 7.14 0.93 3.67 0.96 3.99 0.63 5.9-0.19 1.1-0.27 2.3-0.17 2.65 0.13 0.5 0 0.68-0.61 0.83-0.85 0.21-0.99 0.98-0.47 2.78 0.34 1.17 0.15 2.06-0.44 2.06-0.31 0-0.36 0.56-0.24 2.73 0.13 2.41 0.06 2.95-0.58 4.65-0.47 1.23-0.97 2.04-1.41 2.26-0.76 0.39-1.43 1.44-1.45 2.26 0 0.32-0.36 0.67-0.89 0.87-0.49 0.19-0.89 0.45-0.89 0.58 0 0.14-0.4 0.39-0.89 0.56s-1.02 0.56-1.19 0.87c-0.16 0.31-0.55 0.56-0.85 0.56-0.38 0-0.67 0.34-0.92 1.1-0.87 2.62-3.43 5.93-5.11 6.6-0.5 0.2-1.53 0.93-2.28 1.62-0.92 0.84-1.74 1.31-2.51 1.44-0.62 0.1-1.67 0.44-2.33 0.75-0.65 0.3-1.98 0.65-2.95 0.76-2.29 0.25-2.98 0.63-4.78 2.6-1.61 1.76-2.32 2.04-2.5 0.98-0.09-0.58-0.17-0.53-0.59 0.44-0.27 0.61-0.69 1.1-0.94 1.1-0.26 0-0.46-0.1-0.47-0.22 0-0.12-0.12-0.41-0.27-0.64-0.22-0.35-0.45-0.28-1.32 0.38-0.58 0.44-1.28 0.77-1.56 0.72-0.44-0.07-0.57 0.31-0.86 2.42-0.19 1.38-0.49 3.43-0.66 4.57-0.17 1.13-0.46 3.65-0.64 5.6-0.38 3.99-1.02 6.13-2.36 7.92-1.45 1.92-5.89 8.43-5.89 8.63 0 0.1 0.52 0.66 1.14 1.25 0.9 0.84 1.37 1.7 2.19 4.02 1.95 5.48 1.99 5.88 1.01 10.9-0.41 2.13-0.95 3.11-1.7 3.11-0.12 0-0.3 0.59-0.41 1.32-0.13 0.87-0.34 1.33-0.62 1.33-0.24 0-0.72 0.33-1.07 0.74-0.35 0.4-0.81 0.73-1.01 0.73s-0.63 0.44-0.96 0.96c-0.34 0.53-1.34 1.56-2.24 2.29-1.8 1.47-1.79 1.4-1.28 4.9l0.35 2.43-1.1 2.1c-1.04 1.97-1.12 2.32-1.38 5.99-0.5 6.99-0.88 9.1-1.83 10.25-0.58 0.7-3.68 2.71-5.93 3.84-2.09 1.04-2.24 1.22-5.02 5.97-1.3 2.22-3.21 4.62-5.14 6.44-2.16 2.03-5.78 4.37-6.78 4.37-0.31 0-1.42 0.39-2.46 0.86-1.05 0.47-2.39 0.95-3 1.07-0.96 0.18-1.29 0.49-2.73 2.64-3.42 5.08-8.77 9.95-13.59 12.37-5.17 2.59-8.03 3.49-14.16 4.46-2.79 0.44-11.78 0.76-15.131 0.54zm0.295-2.12c0-0.13-0.697-0.58-1.548-1-2.979-1.47-8.772-7.7-8.772-9.43 0-0.22-0.482-1.14-1.07-2.02-2.108-3.19-2.274-3.81-2.28-8.55-0.008-5.62 0.139-6.45 1.56-8.84 0.66-1.12 1.2-2.17 1.2-2.35s1.068-1.43 2.374-2.79c1.496-1.56 2.25-2.55 2.039-2.68-0.434-0.27-4.577 0.05-8.689 0.67-2.592 0.39-5.58 0.49-14.89 0.5-9.423 0.02-12.069 0.11-13.859 0.48-1.758 0.37-2.193 0.57-2.124 0.96 0.067 0.38-0.132 0.48-0.885 0.46-0.534-0.02-1.303-0.13-1.708-0.25-0.46-0.14-0.904-0.08-1.18 0.15-0.514 0.42-5.544 1.01-8.663 1.01-3.14 0-7.001-0.56-7.849-1.14-0.405-0.27-1.293-0.74-1.973-1.04-1.362-0.6-2.083-1.58-0.906-1.23 2.758 0.81 6.351 1.64 7.104 1.64 1.317 0 0.632-0.46-1.268-0.86-2.831-0.59-5.845-2.26-8.043-4.46-1.095-1.09-1.99-2.13-1.99-2.31 0-0.8 0.943-0.15 3.116 2.12 2.12 2.22 2.529 2.51 4.385 3.11 1.125 0.37 2.916 0.74 3.98 0.82 1.064 0.09 2.134 0.23 2.377 0.32 0.243 0.08 1.172 0.18 2.064 0.22 0.892 0.03 2.385 0.17 3.317 0.3 2.17 0.3 2.233-0.15 0.14-1-0.855-0.35-3.077-1.51-4.938-2.58-1.862-1.07-4.836-2.74-6.61-3.71-1.774-0.96-4.083-2.34-5.131-3.06-2.681-1.84-7.349-4.12-9.339-4.56-2.045-0.46-4.268-0.08-6.195 1.05-1.6358 0.95-3.4908 3.72-4.3127 6.43-1.4511 4.77 0.2764 15.15 3.1497 18.92 0.89 1.17 1.348 1.37 5.923 2.66 7.097 2 23.47 7.21 28.271 9 3.561 1.32 9.077 3.1 13.269 4.28 0.973 0.27 3.162 0.93 4.865 1.48 1.703 0.54 3.959 1.18 5.013 1.43s4.172 1 6.929 1.66c8.684 2.08 9.641 2.3 13.564 3.13 5.182 1.08 9.583 1.57 9.583 1.06zm-58.42-15.68c-6.202-2.06-7.618-2.64-8.661-3.53-0.324-0.28-1.219-0.74-1.987-1.03-1.273-0.46-1.922-0.93-1.655-1.19 0.057-0.06 1.232 0.28 2.61 0.75 2.732 0.92 4.276 1.16 2.949 0.44-1.115-0.6-7.504-2.73-10.173-3.39-3.784-0.93-5.088-1.41-4.52-1.64 0.271-0.11 0.742-0.06 1.046 0.1s2.205 0.71 4.225 1.21c6.934 1.74 11.247 3.26 11.908 4.2 0.277 0.4 1.21 0.75 2.997 1.14 2.488 0.55 3.383 0.94 2.996 1.33-0.099 0.1-1.284-0.09-2.634-0.41-3.987-0.96-4.467-1.04-4.246-0.68 0.109 0.17 2.746 1.13 5.86 2.12 5.24 1.67 7.495 2.66 5.946 2.61-0.318-0.01-3.316-0.92-6.661-2.03zm-8.292-13.01c-1.257-0.13-2.899-0.51-3.65-0.85-0.75-0.33-1.546-0.6-1.769-0.6s-0.405-0.13-0.405-0.29c0-0.46 0.706-0.36 2.261 0.33 1.114 0.5 2.197 0.66 4.963 0.77 2.376 0.09 3.442 0.04 3.244-0.16-0.163-0.16-0.55-0.34-0.861-0.4-0.31-0.06-0.609-0.24-0.664-0.4-0.063-0.19 0.775-0.26 2.304-0.19 1.925 0.09 2.453 0.02 2.655-0.34 0.154-0.27 1.071-0.58 2.389-0.79 3.714-0.6 6.17-1.2 9.445-2.29 2.231-0.74 3.273-0.96 3.491-0.74 0.361 0.36-1.779 1.13-6.345 2.28-3.079 0.77-4.068 1.2-2.047 0.88 1.219-0.2 2.077 0.26 1.063 0.57-0.42 0.13-8.421 1.07-9.079 1.07-0.099 0-0.102 0.24-0.006 0.54 0.152 0.48-0.049 0.57-1.645 0.74-2.029 0.21-2.135 0.21-5.344-0.13zm79.698 28.62c4.23-0.52 13.77-4.01 17.83-6.52 2.71-1.68 6.91-5.29 8.49-7.28 1.65-2.09 4.53-6.99 5.39-9.19 0.29-0.73 0.7-1.61 0.92-1.95 1-1.57 2.88-8.85 3.8-14.71 0.55-3.56 0.55-5.04-0.2-86.84l-0.31-34.64-0.68-0.74c-1.6-1.74-1.69-2.74-0.45-4.99l0.88-1.59v-6.96c0.02-17.98-0.91-97.933-1.18-101.48-0.66-8.842-2.91-14.918-7.1-19.147-2.33-2.355-4.33-3.882-5.58-4.274-0.41-0.126-1.07-0.443-1.46-0.703-1.29-0.844-3.94-1.537-6.5-1.701-2.48-0.159-11.02 0.723-13.72 1.416-3.26 0.842-7.72 3.882-9.91 6.761-1.442 1.906-3.17 5.298-3.967 7.793l-0.659 2.064 8.896 0.169c10.73 0.204 11.23 0.311 13.79 2.97 0.92 0.949 1.94 2.308 2.28 3.019 2.53 5.386 0.55 12.543-4.25 15.383-4.53 2.68-19.535 3.98-39.052 3.38-9.074-0.28-14.443-0.26-29.928 0.12-10.379 0.25-20.231 0.61-21.894 0.8l-3.022 0.34 0.004 103.38 0.004 103.38 0.842 0.59c0.463 0.32 1.954 1.49 3.313 2.6s3.334 2.47 4.388 3.03 2.729 1.6 3.721 2.32c2.919 2.11 8.133 4.81 10.631 5.5 2.292 0.63 2.378 0.63 12.878 0.26 5.82-0.21 12.302-0.28 14.424-0.17 2.435 0.14 4.514 0.09 5.647-0.11 9.401-1.68 15.349-2.1 21.664-1.52 3.63 0.33 3.67 0.35 6.51 1.94 4.82 2.71 6.76 5.31 7.01 9.43 0.29 4.74-0.78 8.18-3.4 10.85-2.42 2.48-2.97 2.58-13.915 2.58-5.174 0-9.469 0.1-9.544 0.22-0.076 0.12 0.248 1 0.719 1.95 0.472 0.94 0.858 1.91 0.858 2.14 0 0.68 1.463 2.8 3.206 4.62 1.618 1.7 4.851 3.76 7.455 4.76 2.671 1.01 6.731 1.29 11.171 0.75zm-11.897-16.44c-0.744-0.82-1.384-2.59-1.383-3.82 0.002-1.08 0.301-1.71 1.718-3.6l0.687-0.91-7.023 0.08-7.023 0.08-0.373 0.77c-0.287 0.6-0.306 1.44-0.083 3.58 0.159 1.54 0.422 3.15 0.583 3.57l0.293 0.77h6.54c6.261 0 6.52-0.02 6.064-0.52zm8.337-0.43c3.43-1.65 5.4-5.48 5.4-10.55 0.01-3.86-1.19-5.84-4.9-8.07-2.07-1.24-6.47-2.34-9.484-2.37-1.817-0.02-2.294 0.1-3.981 1.01-3.107 1.67-6.691 5.7-7.604 8.56-0.79 2.47-1.211 2.35 8.462 2.35 5.317 0 8.607 0.11 8.727 0.29 0.1 0.16-0.54 0.61-1.41 1-3.368 1.48-4.323 4.9-2.11 7.52 1.15 1.37 4.34 1.48 6.9 0.26zm60.93-28.1c0.42-0.63 0.47-1.45 0.35-5.75-0.08-3.41-0.24-5.13-0.49-5.37-0.56-0.57-0.82 0.11-1.02 2.71-0.1 1.27-0.51 3.8-0.92 5.62-0.42 1.83-0.75 3.64-0.75 4.03v0.7l1.17-0.6c0.65-0.33 1.39-0.93 1.66-1.34zm-4.31-18.71c0.87-1.41 1.48-1.53 1.48-0.3 0 1.15 0.65 1.16 1.46 0.02 0.34-0.47 0.9-0.91 1.25-0.96s1.05-0.68 1.56-1.42c1.1-1.56 2.22-1.82 2.51-0.59 0.15 0.63 0.22 0.67 0.46 0.27 0.15-0.26 0.57-0.63 0.92-0.81 0.35-0.19 0.73-0.61 0.83-0.93 0.25-0.79 1.45-0.78 1.8 0.02l0.28 0.61 0.77-0.61c0.8-0.62 1.72-2.81 1.72-4.06 0-0.39 0.21-0.78 0.46-0.88 0.32-0.12 0.41-0.39 0.3-0.85-0.22-0.89 0.31-1.2 0.99-0.59 0.51 0.46 0.55 0.44 0.74-0.34 0.7-2.89 0.77-3.03 1.47-3.03 1.34 0 1.43-2.91 0.19-6.58-0.93-2.74-2.82-6.1-3.43-6.1-0.2 0-0.98 0.68-1.73 1.51-1.1 1.23-1.43 1.44-1.78 1.15-0.33-0.28-0.82-0.16-2.35 0.58-1.62 0.77-2.51 0.97-5.4 1.22-1.91 0.16-4.53 0.49-5.82 0.72-1.3 0.23-2.86 0.42-3.46 0.42-1.43 0-5.41-1.3-6.72-2.2-1.39-0.96-2.58-1.39-2.81-1.02-0.1 0.16-0.08 5.59 0.03 12.07l0.22 11.78 0.66-0.16c0.47-0.12 1.06 0.14 2.04 0.89 1.13 0.86 1.63 1.05 2.76 1.05 1.55-0.01 1.88-0.16 2.38-1.1 0.2-0.39 0.62-0.67 1.01-0.67 0.37 0 0.82-0.15 1-0.33 0.39-0.39 0.97-0.1 0.97 0.5 0 0.23 0.25 0.42 0.55 0.42 0.31 0 0.78 0.33 1.04 0.74 0.27 0.4 0.58 0.74 0.7 0.74s0.55-0.53 0.95-1.18zm-10.56-50.72c0.3 0 1.14-0.54 1.86-1.2 0.72-0.67 1.44-1.13 1.6-1.02 0.17 0.1 0.64-0.04 1.05-0.31 0.58-0.38 0.84-0.41 1.16-0.14 0.34 0.27 0.7 0.13 1.81-0.71 1.03-0.79 1.48-0.98 1.76-0.74 0.28 0.23 0.64 0.15 1.36-0.28 0.91-0.56 1-0.56 1.52-0.1 0.51 0.47 0.58 0.45 1.28-0.45 0.88-1.12 1.1-1.16 1.49-0.3 0.27 0.61 0.33 0.57 1-0.66 0.81-1.46 1.35-1.49 1.22-0.06-0.13 1.46 0.45 1.15 1.25-0.66 0.74-1.66 1.57-2.27 1.22-0.89-0.25 1 0.17 0.93 0.97-0.16 0.65-0.87 1.66-1.1 1.66-0.37 0 0.68 0.36 0.66 1.03-0.06 0.92-0.98 1.27-0.93 1.03 0.15-0.16 0.74-0.11 0.85 0.29 0.7 0.26-0.1 0.67-0.56 0.91-1.03 0.59-1.14 0.96-1.07 1.07 0.19 0.13 1.46 0.56 1.39 1.44-0.24 1.04-1.92 1.59-2.42 1.37-1.24-0.1 0.48-0.26 1.11-0.37 1.4-0.11 0.28-0.07 0.51 0.09 0.51 0.17 0 0.67-0.86 1.13-1.91 0.95-2.18 1.45-2.48 1.22-0.74-0.09 0.65-0.05 1.18 0.08 1.18 0.43 0 1.18-0.91 1.62-1.97 0.53-1.27 1.03-1.02 1.03 0.51 0 0.64 0.12 1.17 0.27 1.17 0.14 0 0.68-0.67 1.21-1.48 0.52-0.81 1.07-1.47 1.23-1.47s0.25 0.52 0.2 1.16c-0.12 1.64 0.17 1.74 1.05 0.34 0.8-1.27 1.35-1.55 1.35-0.71 0 0.38 0.23 0.28 0.97-0.44 0.99-0.96 1.79-1.19 2.14-0.62 0.12 0.2 0.52 0.01 1.07-0.52 0.85-0.81 0.89-0.82 1.3-0.26s0.43 0.56 1.23-0.07c1.43-1.14 2.47-1.62 2.8-1.28 0.37 0.37 1.05 0.05 2.68-1.26 1.04-0.84 1.16-0.87 1.5-0.4 0.36 0.49 0.4 0.49 0.82 0 0.24-0.28 0.75-1.08 1.13-1.77 0.37-0.69 0.86-1.25 1.07-1.25 0.55 0 0.48 0.6-0.2 1.62-0.61 0.92-0.76 1.62-0.35 1.62 0.13 0 0.87-0.86 1.64-1.91 1.37-1.86 2.05-2.31 2.34-1.55 0.13 0.36 1.36-1.97 1.38-2.62 0-0.18 0.21-0.5 0.45-0.71 0.38-0.31 0.53-0.27 0.87 0.19 0.22 0.31 0.5 0.46 0.61 0.35 0.12-0.11 0.53-1.44 0.92-2.95 0.72-2.78 1.34-3.74 2.05-3.15 0.28 0.23 0.49 0.08 0.84-0.6 0.29-0.55 0.7-0.91 1.05-0.91 0.47 0 0.58-0.2 0.58-1 0-2.08 0.63-2.55 1.22-0.91 0.46 1.26 0.68 1.29 1.11 0.15 0.18-0.49 0.48-1.3 0.68-1.81 0.19-0.51 0.67-1.31 1.07-1.79 0.65-0.77 0.7-1.01 0.48-2.39-0.24-1.57-0.24-2.7-0.01-6.84 0.07-1.3 0-3.47-0.16-4.82-0.33-2.92-0.06-3.62 1.11-2.85 0.42 0.28 0.7 0.33 0.7 0.14 0-0.71-1.28-5.49-1.67-6.27-0.81-1.57-4.44-4.9-6.21-5.68l-1.69-0.74-0.49 0.66c-0.33 0.43-0.45 0.98-0.35 1.59 0.09 0.57-0.02 1.22-0.29 1.64-0.24 0.39-0.52 1.18-0.63 1.76-0.21 1.2-1.62 2.73-2.29 2.48-0.3-0.12-0.78 0.38-1.55 1.63-0.62 1-1.51 2.05-1.99 2.34s-1.07 0.81-1.31 1.16c-0.24 0.34-0.75 0.62-1.12 0.62-0.49 0-0.8 0.26-1.06 0.9-0.46 1.11-1.25 1.55-2.35 1.31-0.76-0.16-0.94-0.05-1.6 0.99-0.9 1.43-1.25 1.67-1.79 1.22-0.49-0.4-0.47-0.41-3.57 1.82-1.31 0.95-2.61 1.72-2.88 1.72s-1.32 0.8-2.32 1.77c-1.9 1.84-2.29 2.06-2.29 1.34 0-1.15-1.22-0.8-2.04 0.6-0.69 1.17-1.36 1.36-1.09 0.32 0.09-0.39 0.09-0.78-0.01-0.87-0.32-0.32-1.52 0.69-1.71 1.44-0.16 0.65-0.29 0.71-1.18 0.54-0.89-0.16-1.05-0.09-1.45 0.68-0.72 1.4-1.19 1.65-1.81 0.96-0.69-0.77-0.87-0.74-1.29 0.18-0.29 0.65-0.41 0.71-0.8 0.39-0.38-0.31-0.5-0.31-0.7 0.01-0.31 0.5-1.19 0.18-1.19-0.42 0-0.81-0.69-0.48-2.27 1.08-1.38 1.37-1.69 1.54-2.9 1.58-0.87 0.03-1.66 0.27-2.24 0.7-0.5 0.37-1.09 0.58-1.35 0.48-0.28-0.11-0.75 0.09-1.15 0.46-0.51 0.47-0.9 0.59-1.55 0.46-0.71-0.14-0.96-0.04-1.36 0.58-0.36 0.54-0.67 0.71-1.11 0.59-1.03-0.27-3.36 0.39-4.63 1.31-0.65 0.47-1.5 0.86-1.87 0.86-0.49 0-0.96 0.42-1.7 1.53-0.56 0.84-1.38 1.8-1.83 2.12-0.82 0.6-1.67 0.54-3.55-0.26-0.5-0.21-0.52 0.34-0.44 11.86 0.1 13.72 0.02 13.25 2.25 12.94 0.72-0.1 1.56-0.18 1.87-0.18zm-0.66-25.64c0.3-0.16 1.16-1.71 1.92-3.44 1.36-3.12 2.26-4.6 3.99-6.59 1.06-1.21 1.18-0.95 0.19 0.38-0.39 0.52-0.87 1.26-1.07 1.65-0.35 0.69-0.34 0.7 0.61 0.51 2.18-0.44 3.15-0.81 4.69-1.8 0.88-0.57 1.83-1.04 2.09-1.04 0.78 0 2.78-1.51 4.1-3.1 2.55-3.05 4.32-7.58 4.73-12.09 0.41-4.47 0.38-4.95-0.46-6.18-0.41-0.61-0.68-1.18-0.59-1.27 0.37-0.37 1.6 1.25 1.91 2.53 0.19 0.76 0.49 1.84 0.66 2.39 0.53 1.66 0.35 5.34-0.33 6.83-0.86 1.91-0.81 2.04 0.85 2.04 1.15 0 1.65-0.16 2.41-0.8 0.63-0.54 1-0.69 1.08-0.45 0.21 0.63 0.57 0.4 1.09-0.67 0.49-1.04 1.22-1.16 0.9-0.14-0.1 0.29-0.02 0.64 0.18 0.76 0.34 0.21 0.88-0.31 2.06-1.99 0.41-0.57 0.55-0.62 0.94-0.29 0.4 0.32 0.53 0.25 0.93-0.52 0.28-0.54 0.62-0.83 0.87-0.74 0.24 0.1 0.66-0.26 1.05-0.89 0.36-0.58 0.92-1.2 1.25-1.38 0.53-0.28 0.58-0.53 0.46-2.13-0.16-2.22 0.2-3.44 1.02-3.44 0.5 0 0.54-0.07 0.23-0.44-0.28-0.34-0.29-0.63-0.03-1.25 0.18-0.45 0.32-1.34 0.3-1.99-0.01-0.65 0.07-1.61 0.18-2.14 0.13-0.62 0.05-1.29-0.23-1.92-0.25-0.52-0.54-1.68-0.65-2.57-0.29-2.31-0.88-3.35-2.69-4.72-0.88-0.66-1.6-1.31-1.6-1.44 0-0.52-4.75-3.58-5.57-3.58-0.45 0-1.06-0.26-1.36-0.59-0.29-0.32-0.71-0.59-0.93-0.59s-0.85-0.24-1.41-0.54-2.55-0.92-4.42-1.39c-3.19-0.79-3.54-0.82-5.49-0.48-1.26 0.21-2.91 0.79-4.21 1.46-1.17 0.6-2.57 1.28-3.1 1.5-0.92 0.38-1.82 1.61-1.45 1.98 0.1 0.1 0.45 0.03 0.79-0.15 0.63-0.34 0.9 0.07 0.29 0.44-0.18 0.11-0.51 0.62-0.74 1.13-0.23 0.5-0.58 1.14-0.77 1.42-0.44 0.63-0.1 1.03 0.47 0.56 0.73-0.6 0.83 0.16 0.19 1.35-0.71 1.34-0.79 2.75-0.15 2.75 0.55 0 0.55 0.25-0.01 1.59-0.53 1.26-0.36 1.68 1.18 3.05l1.09 0.95-1.41 0.82c-1.63 0.93-3.32 2.59-4.61 4.5-1.46 2.16-2.31 2.94-4.58 4.18-1.18 0.65-2.27 1.43-2.43 1.73-0.47 0.88-0.33 2.21 0.32 3.04 0.55 0.7 0.8 0.78 2.6 0.78 1.1 0 2.69-0.21 3.55-0.46 0.85-0.26 1.62-0.41 1.69-0.33 0.07 0.07-0.53 1.3-1.35 2.72-2.43 4.24-3.75 8.88-4.06 14.29-0.2 3.55 0.11 4.96 1.3 5.89 0.87 0.69 0.84 0.68 1.54 0.31zm17.27-33.67c-0.33-0.17-1.13-0.88-1.78-1.57-0.88-0.94-1.5-1.31-2.42-1.47-0.67-0.11-1.38-0.39-1.57-0.62s-1-0.5-1.8-0.61c-1.01-0.13-1.37-0.28-1.16-0.5 0.22-0.21 0.89-0.2 2.19 0.04 1.04 0.19 2.23 0.35 2.65 0.35s1.01 0.24 1.3 0.53 0.89 0.76 1.33 1.04c0.45 0.28 0.81 0.76 0.81 1.07 0 0.3 0.41 0.9 0.91 1.32 0.91 0.76 0.64 1.02-0.46 0.42zm24.28-5.49c1.59-2.49 3.89-7.76 4.45-10.22 0.61-2.64 1-5.38 0.73-5.11-0.09 0.09-0.68 1.61-1.31 3.37-2.14 6.04-2.97 8.21-3.37 8.82-0.22 0.33-0.57 1.16-0.77 1.84s-0.55 1.23-0.77 1.23-0.39 0.32-0.39 0.74c0 1.1 0.42 0.9 1.43-0.67zm-42.12-9.5c1.21-0.32 2.5-0.66 2.87-0.76 0.4-0.12 1.05-0.91 1.68-2.04 0.93-1.66 1.25-1.95 3.18-2.97 1.18-0.62 3.01-1.41 4.06-1.75 1.89-0.62 1.93-0.66 2.86-2.53 0.75-1.51 1-2.52 1.25-4.91 0.17-1.66 0.22-3.83 0.12-4.82-0.22-2.09 0.01-2.06-3.93-0.59-5.57 2.07-10.54 3.43-14.82 4.05l-1.11 0.16 0.01 7.71c0 4.24 0.08 8.01 0.18 8.37 0.22 0.82 0.75 0.84 3.65 0.08zm18.01-23.13c0.24-7.51 0.78-10.58 2.16-12.4 1.13-1.49 1.2-2.11 0.33-3.15-1.39-1.64-2.15-3.58-3.4-8.61-1.56-6.31-2.9-9.84-4.14-10.96-0.62-0.56-0.63-0.75 0.18 2.52 0.26 1.05 0.58 2.51 0.71 3.24 1.22 6.88 2.76 12 4.19 13.98 0.55 0.76 0.58 0.97 0.26 1.77-1.59 3.94-1.57 3.84-1.39 9.46 0.23 6.81 0.52 11.41 0.72 11.22 0.08-0.09 0.25-3.27 0.38-7.07zm26.22-12.84c0-1.81-2.39-2.77-6.53-2.6l-2.17 0.09 3.03 0.85c1.84 0.51 3.46 1.17 4.13 1.67 1.4 1.05 1.54 1.05 1.54-0.01zm-46.44-28.88c1.19-0.66 1.91-2.19 1.91-4.08 0-1.58 0.24-1.88 0.89-1.1 0.2 0.24 0.5 0.44 0.65 0.44 0.16 0 0.21-0.2 0.12-0.44-0.1-0.25-0.26-0.64-0.36-0.89-0.13-0.33 0.03-0.44 0.62-0.44 0.64 0 0.76-0.1 0.6-0.52-0.36-0.92-0.32-1.09 0.31-1.18 0.34-0.06 0.79 0.11 0.99 0.36 0.21 0.25 0.61 0.46 0.9 0.46 0.6 0 2.06-1.09 2.06-1.54 0-0.17-0.53-0.89-1.17-1.59-0.65-0.71-1.18-1.52-1.18-1.82 0-1.37 1.7-2.37 2.56-1.51 0.41 0.4 0.97 0.1 0.97-0.52 0-0.25-0.27-0.8-0.61-1.23-0.52-0.66-0.55-0.8-0.17-0.88 0.25-0.05 0.73 0.05 1.06 0.23 0.92 0.49 0.79-0.27-0.18-1.036-0.89-0.711-0.72-1.313 0.36-1.313 0.5 0 0.92 0.318 1.38 1.028 0.37 0.566 0.75 1.031 0.85 1.031s0.26-1.013 0.37-2.258c0.22-2.675-0.03-3.216-2.02-4.386-1.54-0.899-1.75-1.451-0.45-1.165 0.69 0.151 0.93 0.079 1.09-0.328 0.12-0.302 0.05-0.57-0.15-0.637-0.65-0.216-0.35-0.657 0.44-0.657 1 0 1.87-0.774 1.87-1.667 0-0.535-0.16-0.692-0.72-0.692-0.88 0-1.64-0.278-1.64-0.598 0-0.132 0.5-0.398 1.1-0.591 1.73-0.547 2.44-1.103 2.44-1.914 0-0.669-0.11-0.73-1.33-0.73-1.1 0-1.52-0.172-2.41-0.983-0.93-0.85-1.09-1.201-1.2-2.58-0.12-1.45-0.05-1.705 0.81-2.776 1.48-1.857 1.72-2.494 1.57-4.276-0.19-2.251-0.13-3.621 0.16-3.916 0.14-0.138 1-0.62 1.9-1.071l1.65-0.821-0.8-0.725c-0.44-0.398-1.75-1.481-2.92-2.406-3.57-2.823-5.71-6.742-7.11-13.027l-0.84-3.772-0.45 2.328c-0.44 2.307-0.41 4.694 0.08 4.993 0.13 0.086 0.51-0.01 0.84-0.212 0.77-0.485 1.08-0.125 0.74 0.87-0.17 0.5-0.72 1.019-1.44 1.371-0.96 0.471-1.06 0.599-0.61 0.76 0.86 0.302 1.85-0.002 2.01-0.618 0.08-0.309 0.31-0.561 0.51-0.561 0.27 0 0.33 0.47 0.21 1.723-0.23 2.53-0.04 3.229 0.84 3.062 0.99-0.19 0.94 0.606-0.2 2.734-0.75 1.408-0.81 1.665-0.37 1.477 1.55-0.648 3.34-0.488 3.34 0.298 0 0.24-0.13 0.436-0.3 0.436-0.34 0-2.12 2.689-1.91 2.898 0.08 0.076 0.65-0.213 1.27-0.642 2.15-1.493 2.58-0.877 1.52 2.167l-0.57 1.622 0.12-1.67c0.07-0.919 0.05-1.745-0.05-1.837-0.09-0.091-0.81 0.313-1.61 0.899-2.12 1.552-2.43 1.022-1.03-1.715 0.6-1.164 1.03-2.173 0.96-2.241-0.3-0.306-1.5 0.381-2.55 1.468-1.08 1.115-1.15 1.144-1.15 0.479 0-0.389 0.46-1.684 1.04-2.877 1-2.084 1.14-3.172 0.25-1.941-0.88 1.226-1.3 1.621-1.73 1.621-0.68 0-0.54-0.697 0.29-1.474 0.83-0.784 1.03-2.359 0.29-2.359-0.56 0-0.56-0.578 0.01-1.387 0.43-0.62 0.41-0.638-1.16-0.833-1.6-0.201-3.42-1.054-3.42-1.609 0-0.164 0.5-0.301 1.11-0.304l1.11-0.005-1.62-0.813c-1.57-0.79-2.74-2.146-2.26-2.623 0.13-0.13 0.59 0.189 1.02 0.709 0.78 0.928 1.97 1.558 2.95 1.558 0.44 0 0.49-0.391 0.45-3.428-0.03-2.216 0.09-3.821 0.34-4.54 0.22-0.62 0.32-1.635 0.24-2.297-0.09-0.651-0.01-1.844 0.19-2.65 0.52-2.196 0.54-4.158 0.02-4.475-0.34-0.212-0.41-0.921-0.35-3.51 0.07-2.534-0.02-3.396-0.37-3.941-0.28-0.422-0.45-1.287-0.43-2.196 0.04-1.597-0.76-4.649-1.41-5.421-0.22-0.256-0.4-0.563-0.4-0.683 0-0.119-0.67-0.868-1.48-1.664-1.54-1.494-2.35-2.964-2.35-4.241 0-0.789-0.56-2.235-0.87-2.235-0.11 0-0.93-0.704-1.83-1.564-1.08-1.031-2.56-2.005-4.34-2.856-1.48-0.7096-2.69-1.4035-2.69-1.5416s-0.6-0.5071-1.33-0.8199-1.32-0.7062-1.32-0.8741c0-0.168-0.17-0.3062-0.37-0.3072-0.21-0.001-0.77-0.2168-1.26-0.4796-0.98-0.5321-3.42-0.6342-7.65-0.3198-1.45 0.1081-2.71 0.0836-2.8-0.0544-0.09-0.1381-1.02-0.1329-2.06 0.0114-1.52 0.2093-1.99 0.1773-2.32-0.1576-0.48-0.4706-1.53-0.2041-3.83 0.9702-0.88 0.4507-1.57 0.5814-2.58 0.4871-1.17-0.1092-1.4-0.0432-1.52 0.4312-0.08 0.3081-0.45 0.7605-0.83 1.0053-0.6 0.3934-0.72 0.3943-1.04 0.0071-0.31-0.3773-0.47-0.3146-1.13 0.4527-0.43 0.4898-1.01 1.2222-1.3 1.6282-0.31 0.432-0.82 0.738-1.23 0.738s-0.96 0.328-1.33 0.787c-0.34 0.433-0.91 0.807-1.27 0.832-0.44 0.031-0.88 0.458-1.36 1.316-0.391 0.699-0.944 1.332-1.232 1.407-0.287 0.075-0.681 0.522-0.876 0.993-0.202 0.487-0.579 0.857-0.875 0.857-0.585 0-0.873 0.796-0.879 2.432-0.004 1.203-0.191 1.366-0.728 0.632-0.306-0.418-0.41-0.377-0.893 0.36-0.711 1.087-0.883 3.042-0.489 5.573 0.264 1.694 0.245 2.116-0.115 2.513-0.238 0.263-0.433 0.963-0.433 1.555 0 0.903-0.119 1.107-0.737 1.262-0.405 0.102-0.737 0.22-0.737 0.262 0 0.409 1.296 3.974 1.63 4.483 0.573 0.875 0.549 1.567-0.07 2.019-0.612 0.447-0.314 1.262 1.164 3.183 2.052 2.667 1.975 2.614 2.847 1.972 0.423-0.311 1.432-1.185 2.243-1.942l1.47-1.376 0.21-2.397c0.38-4.426 0.7-6.285 1.2-6.997 0.27-0.389 0.9-1.284 1.4-1.988 0.58-0.83 0.84-1.478 0.72-1.843-0.13-0.422 0.02-0.637 0.61-0.861 0.43-0.165 1.01-0.573 1.28-0.909 0.27-0.335 1.42-1.172 2.55-1.86 1.38-0.841 2.09-1.462 2.15-1.893 0.1-0.676 0.49-0.844 0.79-0.347 0.3 0.477 1.33 0.342 1.33-0.174 0-0.367 0.27-0.452 1.25-0.39 0.69 0.044 1.59-0.018 2-0.137 0.53-0.152 1.22 0.004 2.36 0.535 1.5 0.695 1.64 0.714 1.99 0.252 0.32-0.439 0.49-0.452 1.43-0.112 0.89 0.321 1.11 0.319 1.32-0.015 0.14-0.221 0.26-0.476 0.26-0.568 0-0.091 0.99-0.186 2.19-0.211 2.15-0.044 2.21-0.023 3.67 1.165 0.82 0.665 1.63 1.605 1.79 2.089 0.25 0.711 0.44 0.847 0.96 0.71 0.5-0.131 0.88 0.096 1.65 0.997 0.55 0.642 1.26 1.167 1.58 1.167 0.33 0 1.01 0.315 1.53 0.7 0.51 0.386 1.42 0.854 2 1.041 1.25 0.399 2.52 1.869 3.61 4.178 0.61 1.292 0.76 2.009 0.7 3.427-0.05 1.364 0.06 1.931 0.45 2.365 0.75 0.835 0.63 1.896-0.37 3.282-0.61 0.848-0.76 1.224-0.46 1.224 0.81 0 1.5-0.993 1.37-1.99-0.03-0.203 0.14-0.369 0.37-0.369 0.56 0 0.88 1.334 0.5 2.051-0.48 0.896-0.38 1.451 0.24 1.288 0.39-0.1 0.6 0.049 0.72 0.492 0.13 0.485 0.36 0.62 1 0.569 1.45-0.115 2.32 0.011 2.87 0.413 0.46 0.335 0.28 0.371-1.27 0.259-1.58-0.114-1.92-0.04-2.77 0.61-0.89 0.681-1.03 0.707-1.77 0.32-0.68-0.356-0.8-0.607-0.8-1.685v-1.266l-1.42 0.29c-1.51 0.311-2.52 0.17-3.4-0.475-0.54-0.388-0.53-0.428 0.14-1.147 0.39-0.41 1-0.902 1.36-1.093 0.97-0.514 1.61-1.979 1.6-3.677-0.01-0.824 0.13-1.668 0.3-1.875 0.49-0.597 0.01-3.073-0.63-3.241-0.29-0.077-0.68-0.46-0.85-0.851-0.18-0.392-0.52-0.712-0.76-0.712-0.23 0-0.93-0.473-1.54-1.05-0.81-0.768-1.28-1.005-1.76-0.885-0.51 0.127-0.91-0.123-1.79-1.09-0.62-0.689-1.48-1.434-1.91-1.655-0.43-0.22-1.47-1.005-2.31-1.743-1.13-0.988-1.78-1.341-2.46-1.338-0.52 0.002-1.4-0.308-1.96-0.688-1.1-0.745-2.18-0.981-1.54-0.338 0.64 0.635 0.39 0.907-0.6 0.666-0.53-0.128-1.62-0.263-2.44-0.299-0.81-0.037-2.36-0.144-3.45-0.238-1.15-0.099-2.05-0.051-2.15 0.116-0.1 0.157-0.44 0.285-0.76 0.285-0.81 0-4.36 1.168-4.56 1.5-0.09 0.148-0.41 0.27-0.7 0.27-0.57 0-2.09 1.064-2.09 1.468 0 0.136 0.82 0.524 1.83 0.863 1.44 0.485 2.16 0.966 3.39 2.259 1.69 1.778 2.05 2.569 0.75 1.67-0.44-0.309-1.03-0.644-1.31-0.745-0.28-0.1-0.6-0.518-0.7-0.927-0.3-1.2-2.43-1.53-5.66-0.876-0.66 0.134-1.83 1.673-1.83 2.406-0.01 0.471 1.28 0.474 2.58 0.006 0.88-0.319 1.14-0.287 2.14 0.26 0.91 0.502 1.17 0.544 1.29 0.215 0.27-0.693 1.27-0.451 2.07 0.5 0.42 0.499 0.76 1.03 0.76 1.179 0 0.515-0.78 0.272-1.46-0.456-0.81-0.853-1.27-0.714-1.01 0.304 0.22 0.88-0.08 0.915-0.94 0.108-0.59-0.555-0.76-0.578-1.86-0.248-0.67 0.2-1.22 0.541-1.22 0.759 0 0.562-2.18 0.52-2.65-0.051-0.54-0.644-1.08-0.076-1.12 1.183-0.02 0.571-0.19 1.324-0.38 1.673-0.22 0.408-0.27 1.299-0.15 2.504 0.16 1.543 0.09 2.063-0.39 2.975-0.32 0.607-0.65 1.337-0.74 1.621-0.1 0.333-0.44 0.516-0.98 0.516-0.61 0-1.201 0.381-2.188 1.4-1.635 1.69-2.118 2.566-1.897 3.443 0.119 0.476-0.06 0.872-0.639 1.411-1.686 1.573-3.026 1.794-4.943 0.816-1.032-0.526-1.206-0.543-1.495-0.147-0.181 0.246-0.538 0.448-0.795 0.448-0.406 0-0.389 0.177 0.137 1.364 0.721 1.63 0.519 1.868-1.586 1.875-1.084 0.003-1.356 0.098-1.23 0.426 0.089 0.232 0.55 0.557 1.023 0.722 0.951 0.331 1.153 1.195 0.423 1.802-0.348 0.288-0.833 0.285-2.349-0.016-2.063-0.41-3.405-0.12-3.405 0.736 0 0.327 0.456 0.456 1.843 0.522 1.636 0.078 1.853 0.16 1.934 0.73 0.073 0.512-0.076 0.661-0.737 0.737-0.832 0.096-0.965 0.451-0.546 1.466 0.164 0.399 0.011 0.487-0.848 0.487-2.255 0-3.962 1.886-3.991 4.408-0.01 0.923-0.133 1.253-0.465 1.253-0.249 0-0.528-0.199-0.622-0.442-0.278-0.726-0.696-0.502-0.689 0.368 0.003 0.446 0.266 1.143 0.583 1.548 0.662 0.847 0.755 1.471 0.221 1.484-0.225 0.006-0.168 0.162 0.147 0.401 0.681 0.517 0.655 1.437-0.057 2.081-0.419 0.379-0.937 0.49-1.917 0.413-0.963-0.077-1.343 0.002-1.343 0.278 0 0.805 0.887 2.047 2.026 2.836l1.181 0.819 3.925-1.361c14.794-5.127 22.859-7.614 29.579-9.116 5.03-1.124 13.01-1.153 16.91-0.063 3.34 0.933 7.85 4.001 10.62 7.223 2.05 2.378 4.75 7.472 5.34 10.043 0.2 0.892 0.56 2.153 0.81 2.801 0.41 1.091 0.65 8.5 0.94 29.262l0.03 1.54 0.95-0.18c0.53-0.1 1.36-0.4 1.85-0.67zm-35.42-52.809c-1.68-0.522-3.28-2.815-2.83-4.061 0.17-0.485 0.24-0.405 1.03 1.141 0.58 1.123 0.86 1.342 2.38 1.84 1.55 0.507 1.91 0.526 3.52 0.183 1.28-0.272 2.11-0.661 2.88-1.361 1.19-1.07 1.46-1.18 1.46-0.592 0 0.584-1.48 1.88-2.75 2.411-1.4 0.583-4.46 0.819-5.69 0.439zm10.06-4.77c-0.49-0.168-1.57-0.769-2.41-1.336l-1.53-1.031-1.02 1.022c-0.56 0.561-1.42 1.101-1.91 1.199-1.72 0.344-3.66-0.628-4.23-2.114-0.22-0.579-0.4-0.664-1.07-0.501-0.44 0.109-1.34 0.299-1.98 0.424-0.65 0.124-1.61 0.449-2.13 0.721-2.42 1.272-6.97-0.325-8.734-3.071-0.573-0.892-0.879-2.765-0.825-5.06 0.027-1.193 0.198-1.578 1.14-2.58 1.449-1.539 2.149-1.567 2.059-0.084-0.05 0.887 0.05 1.117 0.52 1.212 0.33 0.065 0.7 0.302 0.83 0.528 0.46 0.8 1.88 0.422 3.51-0.935 0.44-0.367 1.47-0.888 2.29-1.159 1.25-0.415 1.48-0.609 1.48-1.221 0-0.858 0.78-2.468 1.19-2.468 0.37 0 0.36 0.194-0.06 1.369-0.28 0.774-0.27 1.119 0.05 1.716 0.5 0.936 0.35 1.074-1.23 1.19-0.7 0.051-1.43 0.105-1.61 0.12-0.19 0.015-0.98 0.559-1.76 1.207-1.18 0.974-1.65 1.18-2.7 1.18-1.5 0-2.86-0.627-3.35-1.54l-0.35-0.65-0.26 0.719c-0.148 0.396-0.192 1.021-0.1 1.39 0.13 0.532 0.05 0.67-0.427 0.67-0.699 0-0.784 0.656-0.153 1.18 0.243 0.202 0.444 0.716 0.445 1.142 0.005 1.32 1.885 3.352 3.635 3.936 2.01 0.669 2.7 0.652 3.03-0.078 0.22-0.507 0.6-0.619 2.38-0.713 1.16-0.061 2.39-0.264 2.74-0.452 0.36-0.188 0.84-0.268 1.07-0.178 0.81 0.312 1.07-1.181 0.41-2.408-0.7-1.293-0.76-2.683-0.16-3.478 0.4-0.525 0.44-0.436 0.45 1.09 0 1.211 0.16 1.852 0.59 2.359l0.58 0.696 0.01-0.745c0.01-0.798 0.74-2.056 1.2-2.056 0.15 0 0.28 0.52 0.28 1.156 0 1.433 0.24 2.088 0.76 2.088 0.23 0 0.33-0.183 0.23-0.443-0.28-0.724 0.74-0.523 1.87 0.369 0.56 0.446 1.44 1.223 1.96 1.727 1.18 1.165 2.24 1.836 3.4 2.17 0.98 0.282 1.2 0.02 0.48-0.58-0.6-0.496-0.56-0.884 0.09-0.884 0.29 0 0.92 0.398 1.38 0.884 1 1.037 1.45 1.138 1.17 0.26-0.11-0.343-0.08-0.574 0.05-0.513 0.14 0.061 0.91 0.421 1.7 0.799 1.07 0.508 1.61 0.616 2.06 0.415 0.35-0.149 1.62-0.6 2.84-1.001l2.21-0.728 0.96-1.87c0.92-1.774 0.96-1.979 0.78-4.031-0.11-1.189-0.32-2.091-0.46-2.004-0.14 0.086-0.25 0.518-0.25 0.959 0 1.044-0.65 1.942-1.72 2.387-1.67 0.691-5.34-0.4-7.9-2.351-0.79-0.598-1.62-0.952-2.36-1.002-1.1-0.075-2.76-0.439-2.76-0.606 0-0.045 0.19-0.462 0.44-0.926 0.24-0.465 0.44-1.21 0.44-1.656s0.13-0.811 0.3-0.811c0.16 0 0.29 0.262 0.29 0.583 0 1.205 1.08 2.416 2.77 3.102 0.9 0.368 2.13 1.099 2.73 1.626 1.08 0.948 1.12 0.956 3.18 0.736 1.15-0.122 2.45-0.225 2.89-0.228 0.79-0.006 0.82-0.052 0.82-1.684 0-1.9 0.14-2.173 0.92-1.757 0.99 0.533 1.42 1.892 1.57 4.967l0.15 2.964-1.4 1.417c-0.99 1.009-1.94 1.62-3.31 2.127-1.05 0.392-2.06 0.901-2.23 1.132-0.35 0.466-1.73 0.376-3.92-0.256-1.14-0.327-1.33-0.313-1.57 0.116-0.3 0.546-1.13 0.592-2.45 0.135zm16.93-3.628c-0.15-4.094-0.2-4.701-0.42-5.381-0.26-0.802 0.16-0.865 1.2-0.181 0.99 0.646 1.27 0.274 0.63-0.836-0.54-0.939-0.5-1.336 0.1-0.967 0.46 0.285 1.76 3.132 1.58 3.439-0.09 0.134-0.5 0.156-0.92 0.051-0.7-0.175-0.75-0.128-0.57 0.515 0.57 2.063 0.58 2.014-0.22 2.317-0.56 0.212-0.78 0.514-0.8 1.11-0.01 0.45-0.13 1.15-0.26 1.555-0.17 0.528-0.26 0.069-0.32-1.622zm0.94-2.705c-0.25-0.442-0.31-0.455-0.32-0.071-0.01 0.496 0.3 0.943 0.51 0.734 0.07-0.068-0.01-0.367-0.19-0.663zm-27.54-5.658c-1.58-1.037-2.18-2.689-1.66-4.563 0.29-1.055 1.58-2.363 2.15-2.175 0.5 0.168 0.56 0.801 0.07 0.801-0.54 0-1.36 1.454-1.36 2.426 0 0.718 0.69 1.892 1.46 2.503 0.25 0.198 1.18 0.364 2.07 0.369 1.4 0.008 1.69-0.093 2.25-0.792 0.57-0.721 0.71-0.765 1.41-0.448 0.88 0.401 1.02 1.189 0.26 1.429-0.29 0.089-0.87 0.35-1.3 0.58-1.16 0.622-4.33 0.545-5.35-0.13zm18.24-3.338c-0.32-0.183-1.9-0.385-3.51-0.449-3.06-0.121-4.62-0.609-4.62-1.441 0-0.363 0.19-0.317 0.96 0.229 0.83 0.596 1.32 0.685 3.76 0.7 2.22 0.013 3.08 0.146 4.13 0.642 1.09 0.519 1.2 0.629 0.59 0.638-0.41 0.007-1-0.137-1.31-0.319zm-28.47-2.545c0-0.695 2.07-1.019 4.25-0.666 1.17 0.188 2.36 0.248 2.66 0.135 0.39-0.149 0.5-0.091 0.4 0.209-0.16 0.477-3.96 0.617-4.58 0.169-0.34-0.245-1.17-0.144-2.26 0.276-0.26 0.099-0.47 0.044-0.47-0.123zm24.91-0.507c-0.49-0.223-1.58-0.411-2.43-0.419-0.85-0.007-1.55-0.112-1.55-0.234 0-0.202 0.75-0.711 2.6-1.783 0.78-0.45 1.26-0.225 3.04 1.413 0.77 0.711 1.18 0.884 1.81 0.763 0.86-0.168 1.12 0.234 0.34 0.534-0.79 0.302-2.88 0.152-3.81-0.274zm6.78-0.432c0.1-0.162 0.45-0.295 0.77-0.295 0.33 0 0.51 0.133 0.41 0.295s-0.45 0.295-0.77 0.295-0.51-0.133-0.41-0.295zm-19.82-0.829c-0.27-0.17-0.21-0.363 0.23-0.74 0.48-0.405 0.56-0.719 0.41-1.534-0.24-1.248 0.15-1.327 0.84-0.169 0.66 1.125 0.64 2-0.07 2.377-0.67 0.362-0.93 0.374-1.41 0.066zm-5.5-0.688c-0.34-0.199-1.21-0.246-2.28-0.124-1.03 0.117-1.74 0.083-1.74-0.083 0-0.551 2.08-2.084 3.07-2.271 1.26-0.235 1.4-0.15 2.51 1.496l0.89 1.32-0.95-0.009c-0.52-0.005-1.19-0.153-1.5-0.329zm19.94-1.32c-0.68-0.777-1.26-0.817-3.46-0.243-0.8 0.208-0.85 0.183-0.48-0.262 0.22-0.27 0.78-0.491 1.23-0.491 0.46 0 0.92-0.133 1.02-0.295 0.51-0.833 2.68 0.563 2.46 1.583-0.08 0.358-0.25 0.295-0.77-0.292zm2.87-0.96c-0.49-0.792-1.35-1.754-1.91-2.138-0.57-0.385-1.03-0.865-1.03-1.068 0-0.502-0.73-0.463-1.82 0.099-0.5 0.257-1.19 0.394-1.53 0.303-0.35-0.091-1.06-0.01-1.58 0.179-0.53 0.189-1.05 0.25-1.16 0.136-0.26-0.262 0.5-0.818 2.51-1.839 1.41-0.713 1.62-0.751 1.85-0.334 0.24 0.426 0.4 0.416 1.61-0.105 1.79-0.769 2.18-0.737 2.18 0.18 0 0.652 0.11 0.744 0.81 0.664 1.72-0.198 0.94-1.998-1.39-3.184-1.63-0.831-3.44-0.624-4.81 0.549-1.65 1.415-2.85 2.142-3.18 1.936-0.53-0.327 1.77-2.434 3.25-2.981 0.74-0.273 1.48-0.6 1.65-0.727s0.84-0.316 1.48-0.419c1.09-0.174 1.3-0.084 2.85 1.218 2 1.685 2.74 3.212 3.05 6.285 0.24 2.443-0.14 2.686-0.76 0.486-0.42-1.509-0.89-2.024-1.59-1.754-0.43 0.166-0.4 0.334 0.26 1.517 1.39 2.5 0.73 3.393-0.74 0.997zm-26.83-0.13c0-0.204 0.37-0.796 0.82-1.315 0.78-0.912 0.86-0.936 2.28-0.699 1.43 0.24 1.4 0.41-0.17 0.749-0.42 0.09-1.25 0.496-1.84 0.9-0.68 0.46-1.09 0.597-1.09 0.365zm-82.704 73.869c11.16-1.05 24.057-1.4 48.377-1.29 18.764 0.07 22.962 0.01 27.569-0.4 2.988-0.27 5.628-0.6 5.868-0.73 0.32-0.18-0.03-0.45-1.29-1.01-0.95-0.42-1.79-0.76-1.87-0.76s-0.96-0.58-1.96-1.29c-2.269-1.62-3.904-3.92-5.382-7.559-1.103-2.718-1.134-2.895-1.12-6.334 0.019-4.501 0.757-7.389 2.966-11.601 1.921-3.663 3.096-5.154 5.676-7.204 1.17-0.936 1.76-1.572 1.49-1.623-1.01-0.195-10.319 2.799-18.108 5.823-2.447 0.95-14.049 4.34-15.628 4.567-0.811 0.116-1.872 0.448-2.359 0.738-0.486 0.289-1.614 0.61-2.506 0.713-0.892 0.102-3.679 0.456-6.192 0.786-6.172 0.81-18.831 1.671-22.999 1.565-1.865-0.048-5.78-0.35-8.699-0.671-7.507-0.826-8.108-0.868-8.108-0.564 0 0.148 0.564 0.794 1.253 1.434s1.158 1.166 1.042 1.168c-0.517 0.009-2.295-1.024-2.295-1.333 0-0.188-0.262-0.644-0.581-1.012-0.46-0.53-1.338-0.816-4.202-1.369-1.992-0.384-4.176-0.783-4.854-0.887l-1.2328-0.188-1.0702 1.673c-1.3155 2.056-1.7461 3.247-2.3169 6.408-1.2001 6.644-0.8789 10.422 1.3121 15.43 0.2835 0.65 0.708 1.66 0.9433 2.24 0.5619 1.38 2.1815 3.2 3.2975 3.71 1.125 0.51 4.022 0.41 12.979-0.43zm31.779-2.41c-3.625-0.16-4.595-0.29-5.043-0.7-0.436-0.39-1.74-0.6-6.116-0.95-3.059-0.25-5.618-0.51-5.688-0.58-0.069-0.07 0.029-0.31 0.219-0.54 0.562-0.68-0.275-0.81-6.231-0.99-5.645-0.18-7.737-0.67-2.802-0.67 3.153 0 15.211 0.82 15.592 1.05 0.142 0.09 0.257 0.34 0.257 0.56s0.365 0.48 0.811 0.58c2.051 0.44 10.382 1.45 14.424 1.75 2.46 0.18 4.572 0.43 4.693 0.55 0.246 0.25-3.371 0.23-10.116-0.06zm-37.645-23.771c-0.237-0.618-0.226-0.711 0.085-0.711 0.368 0 0.649 0.832 0.344 1.02-0.138 0.086-0.331-0.053-0.429-0.309zm93.51 22.541c4.12-0.98 4.42-1.13 6.53-3.35 2.33-2.46 2.82-3.57 2.83-6.486 0.01-2.426-0.87-4.52-2.81-6.725-1.63-1.859-2.8-2.505-5.13-2.834-3.21-0.456-4.52 0.371-5.48 3.454-0.32 1.04-0.58 2.01-0.58 2.155 0 0.592 3.38 0.261 4.99-0.487 0.88-0.41 1.78-0.678 1.99-0.596 0.27 0.102 0.39 0.742 0.39 2.015 0 1.768-0.06 1.922-1.11 2.942-2.09 2.04-3.04 2.273-9.27 2.281-3.21 0.003-5.58 0.125-5.683 0.291-0.338 0.55 1.046 2.67 2.483 3.8 1.66 1.31 3.32 2.17 6.15 3.17 2.26 0.79 2.76 0.83 4.7 0.37zm-4.77-10.754c-0.57-0.748-1.12-1.815-1.23-2.371-0.23-1.236 0.33-3.347 1.25-4.699l0.68-1.006h-5.68c-4.027 0-5.786 0.104-6.037 0.354-0.757 0.758-0.209 6.558 0.797 8.439 0.335 0.625 0.495 0.643 5.8 0.643h5.46l-1.04-1.36zm5.23 0.136c0.86-0.447 1.08-0.823 1.09-1.798 0-0.953 0.11-0.926-1.47-0.369-0.69 0.243-1.84 0.442-2.55 0.442-1.41 0-1.59 0.315-0.83 1.409 0.36 0.513 0.75 0.655 1.79 0.655 0.73 0 1.62-0.152 1.97-0.339zm68.85-10.298c0.83-1.219 1.24-1.417 1.24-0.592 0 0.338 0.13 0.614 0.28 0.614 0.47 0 1.03-1.317 1.17-2.727 0.01-0.122 0.22-0.221 0.46-0.221s0.5-0.299 0.58-0.664c0.69-3.251 0.77-4.092 0.48-5.145-0.46-1.657-0.41-1.951 0.3-1.764 0.6 0.155 0.62 0.088 0.42-1.44-0.16-1.345-0.12-1.602 0.27-1.602 0.66 0 0.59-1.347-0.12-2.052-0.31-0.317-0.83-1.08-1.15-1.695-0.31-0.615-0.98-1.484-1.48-1.931-0.98-0.873-1.2-1.694-0.46-1.694 0.26 0 0.37-0.142 0.26-0.321-0.27-0.437-1.96-0.092-3.23 0.662-1.06 0.625-1.91 0.567-1.91-0.133 0-0.277-0.27-0.36-0.88-0.27-0.83 0.121-0.89 0.069-0.91-0.862-0.02-0.934-0.04-0.953-0.34-0.322-0.18 0.368-0.64 0.75-1.03 0.847-0.69 0.172-0.71 0.248-0.53 2.132 0.1 1.074 0.39 2.926 0.63 4.115 0.25 1.188 0.38 2.239 0.28 2.335-0.15 0.153-1.29-0.27-3.71-1.378-0.4-0.186-1.57-0.852-2.6-1.481-1.84-1.124-1.88-1.133-2.44-0.579-0.31 0.31-0.88 0.563-1.28 0.563-0.88 0-1.22 0.47-0.75 1.031 0.19 0.228 0.25 0.687 0.15 1.019-0.11 0.354-0.06 0.604 0.13 0.604 0.37 0 0.06 2.45-0.33 2.606-0.15 0.055-0.46 0.489-0.71 0.964-0.4 0.773-0.4 0.881 0.01 1.037 0.32 0.123 0.45 0.591 0.45 1.616 0 1.068 0.11 1.443 0.43 1.443 0.55 0 1.8 1.343 2.24 2.384 0.23 0.571 0.48 0.752 0.88 0.646 0.4-0.103 0.67 0.079 0.91 0.624 0.2 0.423 0.57 0.769 0.84 0.769s0.74 0.187 1.05 0.415c0.42 0.307 0.72 0.335 1.15 0.109 0.46-0.249 0.68-0.176 1.12 0.375 0.55 0.676 0.56 0.677 1.47 0.141 0.91-0.533 0.93-0.532 1.43 0.09 0.41 0.508 0.54 0.546 0.68 0.198 0.19-0.506 1.73-0.311 2.69 0.34 0.76 0.525 1.05 0.403 1.86-0.806zm-130.71-2.65c5.014-0.413 10.2-1.099 12.279-1.625 0.915-0.231 2.005-0.42 2.422-0.42 1.26 0 2.76-1.581 3.31-3.489 0.265-0.919 0.6-1.902 0.744-2.183 0.145-0.282 0.263-0.781 0.263-1.11s0.151-0.84 0.336-1.135c0.539-0.864 0.052-3.09-0.955-4.357-1.161-1.461-1.117-3.007 0.103-3.589 0.446-0.213 0.811-0.616 0.811-0.895 0-0.28-0.863-1.363-1.917-2.408s-1.916-2.003-1.916-2.129c0-0.377 0.823-0.261 0.984 0.139 0.108 0.266 0.155 0.271 0.172 0.016 0.052-0.78-1.272-1.27-3.433-1.27-2.093 0-2.146-0.018-2.146-0.737 0-0.88-0.74-0.979-2.094-0.279-0.486 0.251-1.138 0.377-1.448 0.278-0.826-0.262-1.861 0.372-1.603 0.982 0.115 0.271 0.32 1.147 0.456 1.947 0.2 1.179 0.138 1.7-0.333 2.765-0.324 0.731-0.58 1.96-0.58 2.777 0 1.772-0.647 3.245-1.664 3.789-0.414 0.222-1.453 1.16-2.309 2.084-1.245 1.345-1.528 1.833-1.412 2.436 0.173 0.905-0.706 1.36-2.196 1.138-0.65-0.097-1.274 0.062-1.997 0.508-0.906 0.561-1.294 0.622-2.813 0.445-1.666-0.193-1.763-0.17-1.763 0.424 0 1.507-1.952 0.823-3.733-1.307-1.253-1.499-1.965-1.653-3.19-0.69l-0.81 0.638 0.833 0.436 0.832 0.437-0.905 0.769c-0.498 0.423-1.07 1.084-1.272 1.47-0.329 0.628-0.284 0.768 0.428 1.336 0.438 0.349 0.762 0.829 0.721 1.068-0.041 0.238 0.074 0.794 0.256 1.235l0.332 0.801 3.623 0.083c4.438 0.102 6.64 0.03 11.584-0.378zm-4.399-7.648c0.579 0 0.524-0.594-0.098-1.053-0.417-0.308-0.444-0.454-0.142-0.76 0.304-0.309 0.553-0.282 1.34 0.141 1.159 0.624 1.801 0.436 2.255-0.659 0.447-1.078 1.635-2.315 3.359-3.499 0.841-0.576 1.576-1.373 1.83-1.98 0.493-1.18 0.554-2.215 0.13-2.215-0.436 0-0.358-0.621 0.15-1.182 0.743-0.822 0.228-2.143-2.742-7.034-3.841-6.323-3.95-6.67-4.167-13.208-0.201-6.074-0.382-6.588-2.326-6.588-0.815 0-1.26 0.241-2.122 1.147-1.208 1.27-1.71 2.794-1.98 6.004-0.092 1.094-0.203 1.99-0.247 1.99s-2.314-1.095-5.044-2.432c-5.946-2.914-8.352-3.757-11.338-3.972-1.985-0.143-2.437-0.074-3.895 0.594-1.185 0.542-1.701 0.959-1.832 1.479-0.211 0.842 0.618 2.641 1.89 4.102 1.378 1.582 1.716 2.579 1.925 5.675 0.11 1.616 0.382 3.607 0.606 4.423s0.49 2.51 0.591 3.765c0.102 1.256 0.377 2.829 0.613 3.497 1.068 3.027 4.154 5.689 9.754 8.413 1.489 0.725 3.18 1.777 3.758 2.338 1.04 1.01 1.071 1.019 3.052 0.843 1.143-0.102 2.318-0.048 2.739 0.126 0.406 0.167 0.914 0.245 1.13 0.174s0.581-0.129 0.811-0.129zm-1.114-6.654c-0.27-0.414-0.904-7.815-0.689-8.03 0.53-0.53 0.895 0.836 0.994 3.712 0.117 3.418 0.018 4.815-0.305 4.318zm-2.262-5.951c-0.208-0.932-0.562-2.027-0.788-2.432-0.38-0.684-0.41-0.581-0.42 1.425-0.013 2.606-0.56 2.773-1.057 0.322-0.637-3.145-1.345-4.744-2.699-6.098-0.72-0.72-1.245-1.372-1.168-1.449 0.2-0.2 1.785 0.658 2.249 1.216 0.216 0.26 0.619 0.396 0.904 0.305 1.204-0.382 3.804 4.392 3.817 7.006 0.01 1.901-0.38 1.764-0.838-0.295zm100.03-20.257c1.21-1.123 0.94-1.402-0.73-0.766-1.74 0.662-1.86 0.75-1.6 1.174 0.34 0.548 1.52 0.341 2.33-0.408z"/>
 <metadata>
  <rdf:RDF>
   <cc:Work>
    <dc:format>image/svg+xml</dc:format>
    <dc:type rdf:resource="http://purl.org/dc/dcmitype/StillImage"/>
    <cc:license rdf:resource="http://creativecommons.org/licenses/publicdomain/"/>
    <dc:publisher>
     <cc:Agent rdf:about="http://openclipart.org/">
      <dc:title>Openclipart</dc:title>
     </cc:Agent>
    </dc:publisher>
   </cc:Work>
   <cc:License rdf:about="http://creativecommons.org/licenses/publicdomain/">
    <cc:permits rdf:resource="http://creativecommons.org/ns#Reproduction"/>
    <cc:permits rdf:resource="http://creativecommons.org/ns#Distribution"/>
    <cc:permits rdf:resource="http://creativecommons.org/ns#DerivativeWorks"/>
   </cc:License>
  </rdf:RDF>
 </metadata>
</svg>
